
<svg width="54" height="54" viewBox="0 0 54 54" fill="none" xmlns="http://www.w3.org/2000/svg">
  <g clip-path="url(#clip0_160_867)">
    <path d="M27 54C41.9117 54 54 41.9117 54 27C54 12.0883 41.9117 0 27 0C12.0883 0 0 12.0883 0 27C0 41.9117 12.0883 54 27 54Z" fill="#FF750E"/>
    <path d="M23.301 39.186C23.6042 39.9395 23.2378 40.7971 22.4843 41.0997L20.3783 41.944C19.6236 42.2456 18.7666 41.8803 18.4645 41.1262L15.7553 34.5449C15.453 33.7898 15.8194 32.9349 16.5726 32.6274L18.6773 31.7847C19.4317 31.4825 20.2886 31.8484 20.591 32.603L23.301 39.186Z" fill="#3E4959"/>
    <path d="M13.463 25.5424C13.463 25.5424 9.65702 27.7019 11.6448 32.1834C13.6314 36.6659 17.7843 35.2957 17.7843 35.2957C18.188 35.1164 19.3552 34.599 22.3416 33.2764L18.0222 23.5259C15.035 24.8456 13.8674 25.3635 13.463 25.5424Z" fill="#242D3C"/>
    <path d="M20.1428 28.5099C17.185 28.9165 13.8305 29.5615 11.3182 31.2968C10.162 27.414 13.4631 25.5423 13.4631 25.5423C13.8676 25.3635 15.0348 24.8457 18.0223 23.5256L20.2261 28.498C20.1976 28.5028 20.1695 28.5049 20.1428 28.5099Z" fill="#3E4959"/>
    <path d="M31.2579 22.1205C31.2579 23.7267 32.5612 25.0309 34.1709 25.0309C35.7764 25.0309 37.0799 23.7267 37.0799 22.1205C37.0799 20.5127 35.7763 19.2097 34.1709 19.2097C32.5612 19.2094 31.2579 20.5127 31.2579 22.1205Z" fill="#3E4959"/>
    <path d="M38.4299 31.0426C38.7577 31.7846 38.4228 32.6559 37.6803 32.9837C36.9378 33.3155 36.0681 32.9783 35.739 32.2349L27.7913 14.301C27.4622 13.557 27.7991 12.6873 28.5416 12.3595C29.2845 12.0315 30.1535 12.3652 30.4829 13.1092L38.4299 31.0426Z" fill="#242D3C"/>
    <path d="M19.0123 23.084C18.6584 23.2417 18.3327 23.385 18.0222 23.5261L22.3417 33.2765C22.6551 33.14 22.9805 32.9922 23.3323 32.8383C30.6753 29.5845 35.7637 32.2921 35.7637 32.2921L31.7663 23.267L27.7668 14.2405C27.7668 14.2405 26.3541 19.8307 19.0123 23.084Z" fill="#E6E5E5"/>
    <path d="M29.0075 27.5655C28.9516 27.5682 28.9047 27.5798 28.8611 27.5854C28.816 27.5911 28.7655 27.5986 28.7055 27.6053C28.5745 27.6197 28.4431 27.6386 28.3116 27.6517C28.0292 27.6806 27.7474 27.7104 27.4639 27.7387C26.8356 27.7967 26.2062 27.852 25.5739 27.9074C23.784 28.0613 22.005 28.2549 20.226 28.4981L18.0222 23.5258C18.3327 23.3851 18.6583 23.2415 19.0123 23.0838C26.3542 19.8306 27.7668 14.2402 27.7668 14.2402L31.7662 23.2669L33.4011 26.9621C31.9346 27.1345 30.4684 27.3581 29.0075 27.5655Z" fill="white"/>
    <path d="M40.2991 23.7905C44.6007 23.4973 40.6433 23.8199 44.9458 23.5267C45.6039 23.4798 45.7752 24.5027 45.1089 24.5492C40.8059 24.8419 44.7655 24.5171 40.463 24.8092C39.8039 24.8538 39.6325 23.8343 40.2991 23.7905Z" fill="#3E4959"/>
    <path d="M39.5434 19.3358C44.5838 17.2001 41.4879 18.5132 46.5281 16.3802C47.1413 16.1207 47.5643 17.0635 46.9495 17.3241C41.9081 19.4599 45.005 18.1462 39.9633 20.2803C39.3511 20.5404 38.9283 19.5948 39.5434 19.3358Z" fill="#3E4959"/>
    <path d="M37.0662 15.3953C39.8388 12.6384 37.631 14.847 40.4017 12.0935C40.8739 11.6243 41.5262 12.4243 41.0573 12.8903C38.2863 15.6468 40.4938 13.4366 37.722 16.1924C37.25 16.6614 36.598 15.8586 37.0662 15.3953Z" fill="#3E4959"/>
  </g>
  <defs>
    <clipPath id="clip0_160_867">
      <rect width="54" height="54" fill="white"/>
    </clipPath>
  </defs>
</svg>
