
<svg width="38" height="38" viewBox="0 0 38 38" fill="none" xmlns="http://www.w3.org/2000/svg">
<g clip-path="url(#clip0_433_1956)">
  <path fill-rule="evenodd" clip-rule="evenodd" d="M24.718 26.8815V1.32697C24.7171 0.975318 24.577 0.638335 24.3284 0.38968C24.0797 0.141025 23.7427 0.000923565 23.3911 0L4.8172 0C4.46554 0.000890134 4.12854 0.140981 3.87988 0.389643C3.63122 0.638305 3.49112 0.975308 3.49023 1.32697V26.8815C3.49116 27.2332 3.63126 27.5702 3.87991 27.8188C4.12857 28.0675 4.46555 28.2076 4.8172 28.2085H23.3911C23.7427 28.2076 24.0797 28.0674 24.3283 27.8188C24.577 27.5701 24.7171 27.2332 24.718 26.8815ZM25.8037 4.36292H27.754C28.1056 4.36387 28.4426 4.50399 28.6912 4.75263C28.9399 5.00128 29.08 5.33825 29.0809 5.68989V31.2445C29.08 31.5961 28.9399 31.9331 28.6912 32.1817C28.4426 32.4304 28.1056 32.5705 27.754 32.5714H9.18012C8.82848 32.5705 8.49152 32.4304 8.24287 32.1817C7.99422 31.9331 7.85411 31.5961 7.85315 31.2445V29.2942H23.3911C24.0306 29.2932 24.6437 29.0387 25.096 28.5865C25.5482 28.1342 25.8027 27.5211 25.8037 26.8815V4.36292ZM15.5476 8.19413V4.36877C16.52 4.48981 17.4243 4.93176 18.1171 5.62464C18.81 6.31753 19.252 7.22175 19.373 8.19413H15.5476ZM16.3152 13.6638C15.8197 14.1593 15.2129 14.5293 14.5455 14.7431C13.8781 14.9569 13.1693 15.0081 12.478 14.8927C11.7868 14.7773 11.1331 14.4984 10.5714 14.0794C10.0096 13.6604 9.55605 13.1133 9.24839 12.4836C8.94072 11.854 8.78787 11.1599 8.80253 10.4593C8.81719 9.75861 8.99895 9.07158 9.33269 8.45533C9.66642 7.83909 10.1425 7.31144 10.7213 6.91629C11.3001 6.52113 11.9648 6.2699 12.6603 6.18348V10.5517C12.6603 10.623 12.6743 10.6936 12.7016 10.7594C12.7289 10.8253 12.7689 10.8851 12.8193 10.9355C12.8697 10.986 12.9296 11.0259 12.9954 11.0532C13.0613 11.0805 13.1319 11.0945 13.2032 11.0945H17.5713C17.4514 12.0672 17.0093 12.9717 16.3155 13.664L16.3152 13.6638ZM7.06126 18.7969H21.1468C21.218 18.7969 21.2886 18.8109 21.3545 18.8382C21.4203 18.8655 21.4802 18.9055 21.5306 18.9559C21.581 19.0063 21.621 19.0661 21.6483 19.132C21.6755 19.1979 21.6896 19.2684 21.6896 19.3397C21.6896 19.411 21.6755 19.4816 21.6483 19.5475C21.621 19.6133 21.581 19.6732 21.5306 19.7236C21.4802 19.774 21.4203 19.814 21.3545 19.8412C21.2886 19.8685 21.218 19.8826 21.1468 19.8826H7.06126C6.98997 19.8826 6.91939 19.8685 6.85353 19.8412C6.78767 19.814 6.72782 19.774 6.67742 19.7236C6.62701 19.6732 6.58702 19.6133 6.55974 19.5475C6.53246 19.4816 6.51842 19.411 6.51842 19.3397C6.51842 19.2684 6.53246 19.1979 6.55974 19.132C6.58702 19.0661 6.62701 19.0063 6.67742 18.9559C6.72782 18.9055 6.78767 18.8655 6.85353 18.8382C6.91939 18.8109 6.98997 18.7969 7.06126 18.7969ZM7.06126 21.1341H21.1468C21.2185 21.1334 21.2898 21.1468 21.3563 21.1738C21.4229 21.2007 21.4834 21.2406 21.5344 21.2911C21.5855 21.3415 21.626 21.4017 21.6536 21.4679C21.6813 21.5342 21.6955 21.6052 21.6955 21.677C21.6955 21.7488 21.6813 21.8199 21.6536 21.8861C21.626 21.9524 21.5855 22.0125 21.5344 22.063C21.4834 22.1135 21.4229 22.1533 21.3563 22.1803C21.2898 22.2072 21.2185 22.2207 21.1468 22.2199H7.06126C6.9183 22.2183 6.78172 22.1605 6.68118 22.0588C6.58063 21.9572 6.52424 21.82 6.52424 21.677C6.52424 21.534 6.58063 21.3969 6.68118 21.2952C6.78172 21.1936 6.9183 21.1357 7.06126 21.1341ZM7.06126 23.4715H21.1468C21.2185 23.4707 21.2898 23.4842 21.3563 23.5111C21.4229 23.538 21.4834 23.5779 21.5344 23.6284C21.5855 23.6789 21.626 23.739 21.6536 23.8052C21.6813 23.8715 21.6955 23.9425 21.6955 24.0143C21.6955 24.0861 21.6813 24.1572 21.6536 24.2235C21.626 24.2897 21.5855 24.3498 21.5344 24.4003C21.4834 24.4508 21.4229 24.4906 21.3563 24.5176C21.2898 24.5445 21.2185 24.558 21.1468 24.5572H7.06126C6.9183 24.5557 6.78172 24.4978 6.68118 24.3961C6.58063 24.2945 6.52424 24.1573 6.52424 24.0143C6.52424 23.8714 6.58063 23.7342 6.68118 23.6325C6.78172 23.5309 6.9183 23.473 7.06126 23.4715ZM18.6903 10.5515C18.6903 11.6367 18.3684 12.6976 17.7655 13.5999C17.1626 14.5022 16.3056 15.2055 15.303 15.6207C14.3004 16.036 13.1971 16.1447 12.1327 15.9329C11.0684 15.7212 10.0907 15.1986 9.32334 14.4312C8.55597 13.6639 8.03339 12.6862 7.82168 11.6218C7.60997 10.5574 7.71863 9.4542 8.13392 8.45159C8.54921 7.44897 9.25249 6.59202 10.1548 5.9891C11.0571 5.38618 12.118 5.06436 13.2032 5.06435C13.3472 5.06435 13.4852 5.12154 13.587 5.22334C13.6888 5.32514 13.746 5.46322 13.746 5.60718V10.0087H18.1474C18.2914 10.0087 18.4295 10.0658 18.5313 10.1676C18.6331 10.2694 18.6903 10.4075 18.6903 10.5515ZM19.9494 9.2798H15.0051C14.9338 9.27981 14.8632 9.26578 14.7973 9.2385C14.7314 9.21122 14.6716 9.17124 14.6212 9.12083C14.5708 9.07043 14.5308 9.01058 14.5035 8.94472C14.4762 8.87885 14.4622 8.80826 14.4622 8.73697V3.79266C14.4622 3.72137 14.4762 3.65078 14.5035 3.58491C14.5308 3.51905 14.5708 3.45921 14.6212 3.4088C14.6716 3.35839 14.7314 3.31841 14.7973 3.29113C14.8632 3.26385 14.9338 3.24982 15.0051 3.24983C16.4603 3.24988 17.856 3.828 18.885 4.85703C19.914 5.88606 20.4922 7.2817 20.4922 8.73697C20.4922 8.88094 20.435 9.01901 20.3332 9.12081C20.2314 9.22261 20.0933 9.2798 19.9494 9.2798Z" fill="white"/>
</g>
<circle cx="28.2285" cy="28.2285" r="9.77143" fill="#0E3A81"/>
<path d="M30.7714 23.4405C30.3723 23.8327 30.0126 24.2654 29.6924 24.7388C29.3722 25.2122 29.0995 25.7064 28.8744 26.2216C28.6494 26.7367 28.4753 27.2623 28.3523 27.7983C28.2317 28.332 28.1713 28.8564 28.1713 29.3716H26.9044C26.9044 29.0189 26.9334 28.6662 26.9914 28.3135C27.0494 27.9584 27.1306 27.608 27.235 27.2623C27.3418 26.9142 27.4694 26.5743 27.6179 26.2425C27.7687 25.9106 27.9347 25.5916 28.1157 25.2853C28.299 24.9766 28.4962 24.6831 28.7074 24.4047C28.9185 24.1239 29.1401 23.864 29.3722 23.625H26.0238V22.5703H30.7714V23.4405Z" fill="white"/>
<path d="M26.9841 29.9041V34.1431H26.2801V33.8101C26.2122 33.8837 26.1415 33.9466 26.068 33.9989C25.9959 34.0498 25.9217 34.0915 25.8454 34.124C25.769 34.1551 25.6913 34.1777 25.6121 34.1918C25.5329 34.206 25.4531 34.213 25.3725 34.213C25.1251 34.213 24.9095 34.1706 24.7257 34.0858C24.5434 33.9996 24.3921 33.8829 24.2719 33.7359C24.1518 33.5875 24.062 33.4143 24.0026 33.2164C23.9432 33.0185 23.9136 32.8064 23.9136 32.5802C23.915 32.4403 23.9291 32.3024 23.956 32.1667C23.9828 32.031 24.0231 31.9031 24.0768 31.7829C24.1306 31.6613 24.1977 31.5497 24.2783 31.4479C24.3603 31.3461 24.4557 31.2584 24.5646 31.1849C24.6734 31.11 24.7964 31.052 24.9335 31.011C25.0707 30.9686 25.2226 30.9474 25.3895 30.9474C25.47 30.9474 25.5513 30.9559 25.6333 30.9729C25.7167 30.9884 25.7973 31.0124 25.8751 31.045C25.9528 31.0775 26.0263 31.1192 26.0956 31.1701C26.1649 31.221 26.2271 31.281 26.2822 31.3503V29.9041H26.9841ZM24.6664 32.5527C24.6649 32.6827 24.677 32.8114 24.7024 32.9386C24.7278 33.0644 24.771 33.1775 24.8318 33.2779C24.894 33.3768 24.9752 33.4567 25.0756 33.5175C25.1774 33.5783 25.3032 33.6087 25.4531 33.6087C25.61 33.6087 25.7422 33.5797 25.8496 33.5217C25.9585 33.4624 26.0468 33.3846 26.1147 33.2885C26.1825 33.1924 26.2313 33.0828 26.261 32.9598C26.2907 32.8368 26.3055 32.7103 26.3055 32.5802C26.3055 32.4997 26.2992 32.4184 26.2864 32.3364C26.2737 32.253 26.2539 32.1731 26.2271 32.0967C26.2002 32.0204 26.1656 31.949 26.1232 31.8826C26.0807 31.8161 26.0291 31.7589 25.9684 31.7108C25.9076 31.6613 25.8376 31.6225 25.7584 31.5942C25.6793 31.5659 25.5902 31.5518 25.4912 31.5518C25.3428 31.5518 25.2163 31.5815 25.1117 31.6408C25.0085 31.6988 24.9236 31.7751 24.8572 31.8699C24.7908 31.9646 24.742 32.072 24.7109 32.1922C24.6812 32.3109 24.6664 32.4311 24.6664 32.5527ZM29.6199 34.1431C29.6044 34.0681 29.5902 34.0017 29.5775 33.9437C29.5662 33.8844 29.557 33.8222 29.5499 33.7571C29.4764 33.8462 29.3987 33.9197 29.3167 33.9777C29.2361 34.0356 29.1527 34.0823 29.0665 34.1176C28.9802 34.153 28.8926 34.1777 28.8035 34.1918C28.7145 34.206 28.6261 34.213 28.5384 34.213C28.4041 34.213 28.2734 34.1954 28.1461 34.16C28.0203 34.1261 27.9079 34.0731 27.809 34.001C27.71 33.9275 27.6302 33.8349 27.5694 33.7232C27.5086 33.6115 27.4775 33.4793 27.4761 33.3267C27.4746 33.215 27.4902 33.1132 27.5227 33.0213C27.5566 32.9294 27.6019 32.8467 27.6584 32.7732C27.7164 32.6997 27.7842 32.6354 27.862 32.5802C27.9398 32.5237 28.0239 32.4756 28.1143 32.436C28.2048 32.395 28.2988 32.3625 28.3964 32.3385C28.4953 32.313 28.5943 32.294 28.6932 32.2812C28.7767 32.2713 28.8601 32.2643 28.9435 32.26C29.0283 32.2544 29.1075 32.2515 29.181 32.2515C29.2545 32.2501 29.3195 32.2508 29.3761 32.2537C29.4326 32.2551 29.475 32.2572 29.5033 32.26V32.0713C29.5033 31.9964 29.4863 31.9299 29.4524 31.872C29.4185 31.8126 29.3732 31.7631 29.3167 31.7235C29.2616 31.6825 29.1972 31.6514 29.1237 31.6302C29.0516 31.609 28.9774 31.5984 28.9011 31.5984C28.7371 31.5984 28.6042 31.6302 28.5024 31.6938C28.4006 31.756 28.3335 31.8515 28.3009 31.9801H27.5884C27.6054 31.8048 27.6535 31.655 27.7326 31.5306C27.8118 31.4047 27.9129 31.3023 28.0359 31.2231C28.1603 31.1425 28.3031 31.0838 28.4642 31.0471C28.6254 31.0089 28.7972 30.9898 28.9795 30.9898C29.0771 30.9898 29.1753 30.9969 29.2743 31.011C29.3732 31.0252 29.468 31.0485 29.5584 31.081C29.6503 31.1121 29.7358 31.1531 29.815 31.204C29.8942 31.2535 29.9627 31.315 30.0207 31.3885C30.0801 31.462 30.126 31.5482 30.1585 31.6472C30.1925 31.7447 30.2101 31.8564 30.2116 31.9822V33.5387C30.2116 33.6009 30.2137 33.6582 30.2179 33.7105C30.2222 33.7614 30.2292 33.8108 30.2391 33.8589C30.249 33.9056 30.261 33.9522 30.2752 33.9989C30.2907 34.0441 30.3084 34.0922 30.3282 34.1431H29.6199ZM28.6932 33.6066C28.8389 33.6066 28.9626 33.5882 29.0643 33.5514C29.1675 33.5147 29.2517 33.468 29.3167 33.4115C29.3817 33.3549 29.4291 33.2934 29.4588 33.227C29.4884 33.1606 29.5033 33.0983 29.5033 33.0404V32.682C29.434 32.6778 29.3541 32.6778 29.2637 32.682C29.1732 32.6863 29.0799 32.6969 28.9838 32.7138C28.8876 32.7294 28.7929 32.752 28.6996 32.7817C28.6063 32.81 28.5229 32.8467 28.4494 32.892C28.3773 32.9372 28.3186 32.9916 28.2734 33.0552C28.2281 33.1174 28.2055 33.1902 28.2055 33.2736C28.2055 33.333 28.2182 33.3839 28.2437 33.4263C28.2706 33.4673 28.3059 33.5013 28.3497 33.5281C28.395 33.555 28.4473 33.5748 28.5066 33.5875C28.566 33.6002 28.6282 33.6066 28.6932 33.6066ZM32.3745 34.5142C32.3137 34.6683 32.2508 34.7997 32.1858 34.9086C32.1222 35.0188 32.0515 35.1086 31.9737 35.1779C31.8974 35.2486 31.8126 35.3002 31.7193 35.3327C31.6259 35.3652 31.5206 35.3815 31.4033 35.3815C31.3425 35.3815 31.2746 35.3786 31.1997 35.373C31.1248 35.3687 31.0492 35.3518 30.9728 35.3221L30.9707 34.6435C31.0513 34.6746 31.122 34.6951 31.1828 34.705C31.245 34.7163 31.298 34.722 31.3418 34.722C31.4874 34.722 31.5948 34.6555 31.6641 34.5226L31.8232 34.1091L30.6187 31.0598H31.4012L32.19 33.2567L32.9386 31.0598H33.685L32.3745 34.5142Z" fill="white"/>
<defs>
  <clipPath id="clip0_433_1956">
  <rect width="32.5714" height="32.5714" fill="white"/>
</clipPath>
</defs>
</svg>
