
<svg width="36" height="29" viewBox="0 0 36 29" fill="none" xmlns="http://www.w3.org/2000/svg">
<rect y="13.0908" width="5.31148" height="15.5455" rx="1" fill="white"/>
<rect x="5.90137" y="15.5454" width="9.44262" height="13.0909" rx="1" fill="white"/>
<path d="M15.9346 15.5455L16.283 14.8868C18.0655 11.5171 21.5651 9.40918 25.3772 9.40918V28.6365H15.9346V15.5455Z" fill="white"/>
<path d="M25.9668 7.27096C25.9668 6.93782 26.1327 6.62655 26.4093 6.44081L34.4421 1.04603C35.1064 0.599872 35.9996 1.07595 35.9996 1.87619V27.6364C35.9996 28.1886 35.5519 28.6364 34.9996 28.6364H26.9668C26.4145 28.6364 25.9668 28.1886 25.9668 27.6364V7.27096Z" fill="white"/>
<rect x="31.2783" y="22.9092" width="3.54098" height="2.45455" fill="#008FD3"/>
<rect x="1.18066" y="23.0728" width="2.12459" height="1.47273" fill="#008FD3"/>
<rect x="31.2783" y="18" width="3.54098" height="2.45455" fill="#008FD3"/>
<rect x="1.18066" y="20.1274" width="2.12459" height="1.47273" fill="#008FD3"/>
<rect x="31.2783" y="13.0908" width="3.54098" height="2.45455" fill="#008FD3"/>
<rect x="1.18066" y="17.1816" width="2.12459" height="1.47273" fill="#008FD3"/>
<rect x="5.90137" y="18" width="9.44262" height="0.818182" fill="#008FD3"/>
<rect x="15.9346" y="18" width="9.44262" height="0.818182" fill="#008FD3"/>
<rect x="5.90137" y="21.2729" width="9.44262" height="0.818182" fill="#008FD3"/>
<rect x="15.9346" y="21.2729" width="9.44262" height="0.818182" fill="#008FD3"/>
<rect x="5.90137" y="24.5454" width="9.44262" height="0.818182" fill="#008FD3"/>
<rect x="15.9346" y="24.5454" width="9.44262" height="0.818182" fill="#008FD3"/>
</svg>
