
<svg width="34" height="34" viewBox="0 0 34 34" fill="none" xmlns="http://www.w3.org/2000/svg">
<g clip-path="url(#clip0_160_1099)">
<path d="M24.2284 25.0058C24.2284 29.973 20.2015 33.9999 15.2336 33.9999C15.1739 33.9999 14.9547 33.9959 14.9049 33.9939C14.8438 33.9919 14.7821 33.9893 14.721 33.9853C14.6758 33.9833 14.6313 33.98 14.5862 33.9773C14.5828 33.9767 14.5789 33.9767 14.5742 33.976C14.5364 33.9734 14.4978 33.97 14.4593 33.9667C14.3896 33.9614 14.3199 33.9541 14.2501 33.9468C14.211 33.9428 14.1718 33.9382 14.1326 33.9328C14.1114 33.9308 14.0901 33.9282 14.0689 33.9249C14.025 33.9196 13.8544 33.895 13.8132 33.8883C13.7421 33.8771 13.6711 33.8651 13.6 33.8518C13.5555 33.8439 13.5104 33.8352 13.4659 33.8259C13.4254 33.818 13.3849 33.81 13.345 33.8014C13.2952 33.7907 13.0329 33.7283 13.0024 33.721C12.9519 33.7077 12.9008 33.6944 12.8503 33.6805C12.752 33.6539 12.6551 33.6254 12.5588 33.5955C12.5555 33.5942 12.5521 33.5928 12.5488 33.5922C12.499 33.5762 12.2473 33.4919 12.2447 33.4912C12.1982 33.4746 12.0076 33.4036 11.9591 33.385C11.9173 33.3684 11.7254 33.2894 11.6802 33.2708C11.5301 33.2057 11.3821 33.1373 11.2366 33.0649C11.1948 33.0443 11.0215 32.954 10.9763 32.9301C10.9305 32.9055 10.7519 32.8046 10.7074 32.7794C8.03519 31.2201 6.23956 28.3228 6.23956 25.0058C6.23956 22.2175 7.7078 19.0133 9.47487 16.3113L15.234 14.9832L20.8928 16.3113C22.701 19.0133 24.2284 22.2175 24.2284 25.0058Z" fill="#008FD3"/>
<path d="M24.2283 25.0058C24.2283 29.973 20.2015 33.9999 15.2336 33.9999C15.1738 33.9999 14.9547 33.9959 14.9049 33.9939C14.8438 33.9919 14.7821 33.9893 14.721 33.9853C14.6758 33.9833 14.6313 33.98 14.5862 33.9773C14.5828 33.9767 14.5789 33.9767 14.5742 33.976C14.5364 33.9734 14.4978 33.97 14.4593 33.9667C14.3896 33.9614 14.3199 33.9541 14.2501 33.9468C14.211 33.9428 14.1718 33.9382 14.1326 33.9328C14.1114 33.9308 14.0901 33.9282 14.0689 33.9249C14.025 33.9196 13.8544 33.895 13.8132 33.8883C13.7421 33.8771 13.6711 33.8651 13.6 33.8518C13.5555 33.8439 13.5104 33.8352 13.4659 33.8259C13.4254 33.818 13.3849 33.81 13.345 33.8014C13.2952 33.7907 13.0329 33.7283 13.0024 33.721C12.9519 33.7077 12.9008 33.6944 12.8503 33.6805C12.752 33.6539 12.6551 33.6254 12.5588 33.5955C12.5555 33.5942 12.5521 33.5928 12.5488 33.5922C12.499 33.5762 12.2473 33.4919 12.2447 33.4912C12.1982 33.4746 12.0076 33.4036 11.9591 33.385C11.9173 33.3684 11.7254 33.2894 11.6802 33.2708C11.5301 33.2057 11.3821 33.1373 11.2366 33.0649C11.1948 33.0443 11.0215 32.954 10.9763 32.9301C10.9305 32.9055 10.7519 32.8046 10.7074 32.7794C10.6184 32.7276 10.5307 32.6738 10.4444 32.6193C11.3562 32.964 12.341 33.1519 13.3683 33.1519C18.0625 33.1519 21.8683 29.226 21.8683 24.383C21.8683 21.8024 20.5674 18.8566 18.9736 16.3113H20.8928C22.701 19.0133 24.2283 22.2175 24.2283 25.0058Z" fill="#008FD3"/>
<path d="M20.8925 16.3117C18.6262 12.9243 15.9205 10.3259 15.2339 10.3259C14.3784 10.3259 11.6917 12.9243 9.47552 16.3117H20.8925Z" fill="#008FD3"/>
<path d="M17.2844 11.8597C16.9267 11.502 16.4947 11.0973 16.0925 10.7876C15.9049 10.6433 15.4711 10.3259 15.234 10.3259C14.9813 10.3259 14.6067 10.5602 14.3993 10.704C15.5724 11.7096 17.4132 13.8188 18.9738 16.3117H20.8926C19.6912 14.5162 18.3665 12.9424 17.2844 11.8597Z" fill="#008FD3"/>
<path d="M6.50583 13.418C6.50583 15.1836 5.07458 16.6148 3.3091 16.6148C1.54362 16.6148 0.112305 15.1836 0.112305 13.418C0.112305 11.1845 2.76251 8.40967 3.30904 8.40967C3.74771 8.40967 6.50577 11.1845 6.50583 13.418Z" fill="#008FD3"/>
<path d="M3.30906 8.40967C3.21277 8.40967 3.05094 8.49613 2.85006 8.65032C3.81017 9.61175 5.14427 11.4268 5.14427 12.9803C5.14427 14.7458 3.71301 16.177 1.94754 16.177C1.85503 16.177 1.76372 16.1722 1.67328 16.1645C2.15194 16.4503 2.71121 16.6148 3.30913 16.6148C5.07467 16.6148 6.50593 15.1836 6.50586 13.4181C6.50579 11.1845 3.74774 8.40967 3.30906 8.40967Z" fill="#008FD3"/>
<path d="M18.0044 29.8612C16.9543 29.8612 16.1001 29.0068 16.1001 27.9568C16.1001 26.9068 16.9544 26.0525 18.0044 26.0525C19.0544 26.0525 19.9088 26.9067 19.9088 27.9568C19.9088 29.0069 19.0545 29.8612 18.0044 29.8612ZM18.0044 27.0634C17.5118 27.0634 17.1109 27.4642 17.1109 27.9568C17.1109 28.4495 17.5118 28.8503 18.0044 28.8503C18.497 28.8503 18.8979 28.4494 18.8979 27.9568C18.8979 27.4642 18.497 27.0634 18.0044 27.0634Z" fill="white"/>
<path d="M12.4634 23.9588C11.4133 23.9588 10.5591 23.1046 10.5591 22.0545C10.5591 21.0044 11.4134 20.1501 12.4634 20.1501C13.5134 20.1501 14.3677 21.0045 14.3677 22.0545C14.3677 23.1045 13.5135 23.9588 12.4634 23.9588ZM12.4634 21.161C11.9707 21.161 11.57 21.5619 11.57 22.0545C11.57 22.5471 11.9708 22.9479 12.4634 22.9479C12.956 22.9479 13.3568 22.5471 13.3568 22.0545C13.3568 21.5618 12.9561 21.161 12.4634 21.161Z" fill="white"/>
<path d="M11.9691 28.7759C11.8397 28.7759 11.7104 28.7266 11.6117 28.6279C11.4143 28.4306 11.4143 28.1105 11.6117 27.9131L18.1414 21.3834C18.3387 21.186 18.6587 21.186 18.8562 21.3834C19.0536 21.5808 19.0536 21.9008 18.8562 22.0982L12.3265 28.6279C12.2277 28.7265 12.0985 28.7759 11.9691 28.7759Z" fill="white"/>
<path d="M29.9003 23.2671C32.4311 20.7339 33.8878 17.2844 33.8878 13.6331C33.8878 9.90429 32.3825 6.52076 29.9482 4.05696C29.9323 4.03464 29.9148 4.01306 29.8948 3.99307C29.8748 3.97309 29.8532 3.95562 29.831 3.93968C27.3671 1.50536 23.9836 0 20.2547 0C16.6035 0 13.1539 1.45669 10.6207 3.9875C10.6187 3.98942 10.6166 3.99102 10.6146 3.99301C10.6132 3.9944 10.612 3.99593 10.6107 3.99739C10.0007 4.608 9.44345 5.28023 8.95019 6.01036C8.79393 6.24172 8.85476 6.55589 9.08605 6.71214C9.31741 6.8684 9.63158 6.80757 9.78784 6.57628C10.1496 6.04084 10.5484 5.53895 10.979 5.07224L12.628 6.72124C12.7267 6.81992 12.8561 6.86926 12.9854 6.86926C13.1148 6.86926 13.2441 6.81992 13.3428 6.72124C13.5403 6.52388 13.5403 6.2038 13.3428 6.00644L11.6945 4.35811C13.8802 2.34022 16.7257 1.14272 19.7492 1.02219V3.35285C19.7492 3.63202 19.9755 3.85834 20.2547 3.85834C20.5338 3.85834 20.7601 3.63202 20.7601 3.35285V1.02193C23.8597 1.14464 26.6753 2.39009 28.8107 4.36229L27.1665 6.00651C26.9691 6.20387 26.9691 6.52395 27.1665 6.72131C27.2652 6.81999 27.3946 6.86933 27.524 6.86933C27.6533 6.86933 27.7827 6.81999 27.8814 6.72131L29.5256 5.07716C31.4978 7.21258 32.7432 10.0281 32.8659 13.1277H30.5349C30.2558 13.1277 30.0295 13.354 30.0295 13.6331C30.0295 13.9123 30.2557 14.1386 30.5349 14.1386H32.8656C32.7451 17.1621 31.5476 20.0076 29.5298 22.1933L27.8813 20.545C27.6839 20.3476 27.3639 20.3476 27.1665 20.545C26.9691 20.7423 26.9691 21.0624 27.1665 21.2598L28.8156 22.9088C28.3489 23.3395 27.847 23.7383 27.3117 24.1C27.0803 24.2563 27.0195 24.5705 27.1757 24.8018C27.2734 24.9464 27.4328 25.0243 27.595 25.0243C27.6924 25.0243 27.7907 24.9962 27.8775 24.9377C28.6076 24.4444 29.2799 23.8871 29.8905 23.2772C29.8919 23.2758 29.8934 23.2747 29.8949 23.2733C29.8967 23.2712 29.8984 23.2691 29.9003 23.2671Z" fill="#008FD3"/>
</g>
<defs>
<clipPath id="clip0_160_1099">
<rect width="34" height="34" fill="white"/>
</clipPath>
</defs>
</svg>
