<svg width="42" height="42" viewBox="0 0 42 42" fill="none" xmlns="http://www.w3.org/2000/svg">
<path d="M26.25 6.23438C26.25 5.32829 25.5155 4.59375 24.6094 4.59375H6.23438C5.32829 4.59375 4.59375 5.32829 4.59375 6.23438V8.85938H7.97941C10.5776 8.85938 12.8517 10.4609 13.776 12.7969H23.625V14.9629C24.54 15.1374 25.4209 15.4244 26.25 15.8116V6.23438Z" fill="#2AA2DA"/>
<path d="M26.25 6.23438C26.25 5.32829 25.5155 4.59375 24.6094 4.59375H6.23438C5.32829 4.59375 4.59375 5.32829 4.59375 6.23438V8.85938H7.97941C10.5776 8.85938 12.8517 10.4609 13.776 12.7969H23.625V14.9629C24.54 15.1374 25.4209 15.4244 26.25 15.8116V6.23438Z" fill="#2AA2DA"/>
<path d="M17.7058 35.2744L16.8593 30.2555C17.4012 30.3592 17.8899 30.6258 18.3857 30.8564C19.2631 31.2645 20.2759 31.2645 21.1533 30.8564C22.3032 30.3215 23.4361 29.9241 24.6807 30.503L25.4404 30.8564C26.3178 31.2645 27.3306 31.2645 28.208 30.8564L28.9678 30.503C29.8452 30.0949 30.858 30.0949 31.7354 30.503L32.9241 31.0559C33.5068 31.3269 34.1936 31.2365 34.6861 30.8241C35.7646 29.9214 37.4062 30.688 37.4062 32.0943V35.7656C37.4062 36.6716 36.6716 37.4062 35.7656 37.4062H17.2495C17.6514 36.8061 17.8375 36.055 17.7058 35.2744Z" fill="#2AA2DA"/>
<path d="M17.7058 35.2744L16.8593 30.2555C17.4012 30.3592 17.8899 30.6258 18.3857 30.8564C19.2631 31.2645 20.2759 31.2645 21.1533 30.8564C22.3032 30.3215 23.4361 29.9241 24.6807 30.503L25.4404 30.8564C26.3178 31.2645 27.3306 31.2645 28.208 30.8564L28.9678 30.503C29.8452 30.0949 30.858 30.0949 31.7354 30.503L32.9241 31.0559C33.5068 31.3269 34.1936 31.2365 34.6861 30.8241C35.7646 29.9214 37.4062 30.688 37.4062 32.0943V35.7656C37.4062 36.6716 36.6716 37.4062 35.7656 37.4062H17.2495C17.6514 36.8061 17.8375 36.055 17.7058 35.2744Z" fill="#2AA2DA"/>
<path d="M16.6308 28.9009L14.6036 16.8827C17.0905 17.9562 19.086 20.0359 20.009 22.7077L22.1895 29.0199C21.6307 29.1587 21.1191 29.4247 20.5998 29.6663C20.0734 29.9112 19.4657 29.9112 18.9392 29.6663C18.1917 29.3186 17.467 28.9719 16.6308 28.9009Z" fill="#2AA2DA"/>
<path d="M16.6308 28.9009L14.6036 16.8827C17.0905 17.9562 19.086 20.0359 20.009 22.7077L22.1895 29.0199C21.6307 29.1587 21.1191 29.4247 20.5998 29.6663C20.0734 29.9112 19.4657 29.9112 18.9392 29.6663C18.1917 29.3186 17.467 28.9719 16.6308 28.9009Z" fill="#2AA2DA"/>
<path d="M27.9444 29.5315C27.311 29.8261 26.6646 29.9783 25.9939 29.6663L25.2342 29.3129C24.6932 29.0613 24.1155 28.9205 23.5335 28.8905L21.2495 22.2791C20.3085 19.5552 18.3839 17.3743 15.9552 16.0781C20.2445 16.0781 24.1598 18.5761 25.5871 22.7077L27.9444 29.5315Z" fill="#2AA2DA"/>
<path d="M27.9444 29.5315C27.311 29.8261 26.6646 29.9783 25.9939 29.6663L25.2342 29.3129C24.6932 29.0613 24.1155 28.9205 23.5335 28.8905L21.2495 22.2791C20.3085 19.5552 18.3839 17.3743 15.9552 16.0781C20.2445 16.0781 24.1598 18.5761 25.5871 22.7077L27.9444 29.5315Z" fill="#2AA2DA"/>
<path d="M29.1635 29.0407L26.8276 22.2791C25.8867 19.5552 23.962 17.3743 21.5333 16.0781C25.7308 16.0783 29.4665 18.7402 30.8371 22.7077L33.2778 29.7729L32.2889 29.3129C31.3038 28.8548 30.1968 28.764 29.1635 29.0407Z" fill="#2AA2DA"/>
<path d="M29.1635 29.0407L26.8276 22.2791C25.8867 19.5552 23.962 17.3743 21.5333 16.0781C25.7308 16.0783 29.4665 18.7402 30.8371 22.7077L33.2778 29.7729L32.2889 29.3129C31.3038 28.8548 30.1968 28.764 29.1635 29.0407Z" fill="#2AA2DA"/>
<path d="M31.864 14.2751L34.2982 28.7077L32.0776 22.2791C31.2397 19.8536 29.6218 17.8586 27.5625 16.5354V10.2027C29.7212 10.4446 31.4954 12.0899 31.864 14.2751Z" fill="#2AA2DA"/>
<path d="M31.864 14.2751L34.2982 28.7077L32.0776 22.2791C31.2397 19.8536 29.6218 17.8586 27.5625 16.5354V10.2027C29.7212 10.4446 31.4954 12.0899 31.864 14.2751Z" fill="#2AA2DA"/>
<path d="M7.97944 10.1719C10.3818 10.1719 12.4332 11.9062 12.8327 14.2751L16.4116 35.4926C16.5805 36.4937 15.809 37.4062 14.7938 37.4062H6.23438C5.32829 37.4062 4.59375 36.6716 4.59375 35.7656V10.1719H7.97944Z" fill="#2AA2DA"/>
<path d="M7.97944 10.1719C10.3818 10.1719 12.4332 11.9062 12.8327 14.2751L16.4116 35.4926C16.5805 36.4937 15.809 37.4062 14.7938 37.4062H6.23438C5.32829 37.4062 4.59375 36.6716 4.59375 35.7656V10.1719H7.97944Z" fill="#2AA2DA"/>
</svg>
