
<svg width="36" height="29" viewBox="0 0 36 29" fill="none" xmlns="http://www.w3.org/2000/svg">
<rect y="13.0908" width="5.31148" height="15.5455" rx="1" fill="#008FD3"/>
<rect x="5.90164" y="15.5454" width="9.44262" height="13.0909" rx="1" fill="#008FD3"/>
<path d="M15.9344 15.5455L16.2829 14.8868C18.0653 11.5171 21.5649 9.40918 25.377 9.40918V28.6365H15.9344V15.5455Z" fill="#008FD3"/>
<path d="M25.9672 7.27096C25.9672 6.93782 26.1331 6.62655 26.4097 6.44081L34.4425 1.04603C35.1068 0.599872 36 1.07595 36 1.87619V27.6364C36 28.1886 35.5523 28.6364 35 28.6364H26.9672C26.4149 28.6364 25.9672 28.1886 25.9672 27.6364V7.27096Z" fill="#008FD3"/>
<rect x="31.2787" y="22.9092" width="3.54098" height="2.45455" fill="white"/>
<rect x="1.18033" y="23.0728" width="2.12459" height="1.47273" fill="white"/>
<rect x="31.2787" y="18" width="3.54098" height="2.45455" fill="white"/>
<rect x="1.18033" y="20.1272" width="2.12459" height="1.47273" fill="white"/>
<rect x="31.2787" y="13.0908" width="3.54098" height="2.45455" fill="white"/>
<rect x="1.18033" y="17.1819" width="2.12459" height="1.47273" fill="white"/>
<rect x="5.90164" y="18" width="9.44262" height="0.818182" fill="white"/>
<rect x="15.9344" y="18" width="9.44262" height="0.818182" fill="white"/>
<rect x="5.90164" y="21.2727" width="9.44262" height="0.818182" fill="white"/>
<rect x="15.9344" y="21.2727" width="9.44262" height="0.818182" fill="white"/>
<rect x="5.90164" y="24.5454" width="9.44262" height="0.818182" fill="white"/>
<rect x="15.9344" y="24.5454" width="9.44262" height="0.818182" fill="white"/>
</svg>
