
<svg width="38" height="38" viewBox="0 0 38 38" fill="none" xmlns="http://www.w3.org/2000/svg">
  <g clip-path="url(#clip0_160_1037)">
  <path fill-rule="evenodd" clip-rule="evenodd" d="M24.7182 26.8815V1.32697C24.7173 0.975318 24.5772 0.638335 24.3285 0.38968C24.0799 0.141025 23.7429 0.000923565 23.3912 0L4.81737 0C4.46571 0.000890134 4.12871 0.140981 3.88005 0.389643C3.63138 0.638305 3.49129 0.975308 3.4904 1.32697V26.8815C3.49133 27.2332 3.63143 27.5702 3.88008 27.8188C4.12874 28.0675 4.46572 28.2076 4.81737 28.2085H23.3912C23.7429 28.2076 24.0798 28.0674 24.3285 27.8188C24.5771 27.5701 24.7172 27.2332 24.7182 26.8815ZM25.8039 4.36292H27.7541C28.1058 4.36387 28.4428 4.50399 28.6914 4.75263C28.94 5.00128 29.0802 5.33825 29.0811 5.68989V31.2445C29.0802 31.5961 28.94 31.9331 28.6914 32.1817C28.4428 32.4304 28.1058 32.5705 27.7541 32.5714H9.18029C8.82865 32.5705 8.49169 32.4304 8.24304 32.1817C7.99439 31.9331 7.85428 31.5961 7.85332 31.2445V29.2942H23.3912C24.0308 29.2932 24.6439 29.0387 25.0961 28.5865C25.5484 28.1342 25.8029 27.5211 25.8039 26.8815V4.36292ZM15.5478 8.19413V4.36877C16.5202 4.48981 17.4244 4.93176 18.1173 5.62464C18.8102 6.31753 19.2521 7.22175 19.3732 8.19413H15.5478ZM16.3154 13.6638C15.8198 14.1593 15.2131 14.5293 14.5457 14.7431C13.8783 14.9569 13.1695 15.0081 12.4782 14.8927C11.787 14.7773 11.1333 14.4984 10.5715 14.0794C10.0098 13.6604 9.55622 13.1133 9.24855 12.4836C8.94089 11.854 8.78804 11.1599 8.8027 10.4593C8.81736 9.75861 8.99912 9.07158 9.33286 8.45533C9.66659 7.83909 10.1427 7.31144 10.7214 6.91629C11.3002 6.52113 11.965 6.2699 12.6605 6.18348V10.5517C12.6605 10.623 12.6745 10.6936 12.7018 10.7594C12.7291 10.8253 12.7691 10.8851 12.8195 10.9355C12.8699 10.986 12.9297 11.0259 12.9956 11.0532C13.0615 11.0805 13.1321 11.0945 13.2034 11.0945H17.5715C17.4516 12.0672 17.0094 12.9717 16.3157 13.664L16.3154 13.6638ZM7.06143 18.7969H21.1469C21.2182 18.7969 21.2888 18.8109 21.3547 18.8382C21.4205 18.8655 21.4804 18.9055 21.5308 18.9559C21.5812 19.0063 21.6212 19.0661 21.6484 19.132C21.6757 19.1979 21.6898 19.2684 21.6898 19.3397C21.6898 19.411 21.6757 19.4816 21.6484 19.5475C21.6212 19.6133 21.5812 19.6732 21.5308 19.7236C21.4804 19.774 21.4205 19.814 21.3547 19.8412C21.2888 19.8685 21.2182 19.8826 21.1469 19.8826H7.06143C6.99014 19.8826 6.91955 19.8685 6.85369 19.8412C6.78783 19.814 6.72799 19.774 6.67758 19.7236C6.62718 19.6732 6.58719 19.6133 6.55991 19.5475C6.53263 19.4816 6.51859 19.411 6.51859 19.3397C6.51859 19.2684 6.53263 19.1979 6.55991 19.132C6.58719 19.0661 6.62718 19.0063 6.67758 18.9559C6.72799 18.9055 6.78783 18.8655 6.85369 18.8382C6.91955 18.8109 6.99014 18.7969 7.06143 18.7969ZM7.06143 21.1341H21.1469C21.2187 21.1334 21.2899 21.1468 21.3565 21.1738C21.423 21.2007 21.4836 21.2406 21.5346 21.2911C21.5856 21.3415 21.6262 21.4017 21.6538 21.4679C21.6815 21.5342 21.6957 21.6052 21.6957 21.677C21.6957 21.7488 21.6815 21.8199 21.6538 21.8861C21.6262 21.9524 21.5856 22.0125 21.5346 22.063C21.4836 22.1135 21.423 22.1533 21.3565 22.1803C21.2899 22.2072 21.2187 22.2207 21.1469 22.2199H7.06143C6.91847 22.2183 6.78189 22.1605 6.68134 22.0588C6.5808 21.9572 6.5244 21.82 6.5244 21.677C6.5244 21.534 6.5808 21.3969 6.68134 21.2952C6.78189 21.1936 6.91847 21.1357 7.06143 21.1341ZM7.06143 23.4715H21.1469C21.2187 23.4707 21.2899 23.4842 21.3565 23.5111C21.423 23.538 21.4836 23.5779 21.5346 23.6284C21.5856 23.6789 21.6262 23.739 21.6538 23.8052C21.6815 23.8715 21.6957 23.9425 21.6957 24.0143C21.6957 24.0861 21.6815 24.1572 21.6538 24.2235C21.6262 24.2897 21.5856 24.3498 21.5346 24.4003C21.4836 24.4508 21.423 24.4906 21.3565 24.5176C21.2899 24.5445 21.2187 24.558 21.1469 24.5572H7.06143C6.91847 24.5557 6.78189 24.4978 6.68134 24.3961C6.5808 24.2945 6.5244 24.1573 6.5244 24.0143C6.5244 23.8714 6.5808 23.7342 6.68134 23.6325C6.78189 23.5309 6.91847 23.473 7.06143 23.4715ZM18.6904 10.5515C18.6904 11.6367 18.3686 12.6976 17.7657 13.5999C17.1627 14.5022 16.3058 15.2055 15.3031 15.6207C14.3005 16.036 13.1973 16.1447 12.1329 15.9329C11.0685 15.7212 10.0909 15.1986 9.32351 14.4312C8.55614 13.6639 8.03356 12.6862 7.82185 11.6218C7.61013 10.5574 7.71879 9.4542 8.13409 8.45159C8.54938 7.44897 9.25265 6.59202 10.155 5.9891C11.0573 5.38618 12.1181 5.06436 13.2034 5.06435C13.3473 5.06435 13.4854 5.12154 13.5872 5.22334C13.689 5.32514 13.7462 5.46322 13.7462 5.60718V10.0087H18.1476C18.2916 10.0087 18.4297 10.0658 18.5315 10.1676C18.6333 10.2694 18.6904 10.4075 18.6904 10.5515ZM19.9495 9.2798H15.0052C14.9339 9.27981 14.8633 9.26578 14.7975 9.2385C14.7316 9.21122 14.6718 9.17124 14.6213 9.12083C14.5709 9.07043 14.5309 9.01058 14.5037 8.94472C14.4764 8.87885 14.4623 8.80826 14.4623 8.73697V3.79266C14.4623 3.72137 14.4764 3.65078 14.5037 3.58491C14.5309 3.51905 14.5709 3.45921 14.6213 3.4088C14.6718 3.35839 14.7316 3.31841 14.7975 3.29113C14.8633 3.26385 14.9339 3.24982 15.0052 3.24983C16.4605 3.24988 17.8561 3.828 18.8852 4.85703C19.9142 5.88606 20.4923 7.2817 20.4924 8.73697C20.4924 8.88094 20.4352 9.01901 20.3334 9.12081C20.2316 9.22261 20.0935 9.2798 19.9495 9.2798Z" fill="#2AA2DA"/>
  </g>
<circle cx="28.2286" cy="28.2287" r="9.77143" fill="#CFE5F6"/>
<path d="M30.7717 23.4403C30.3726 23.8324 30.0129 24.2652 29.6927 24.7386C29.3725 25.2119 29.0998 25.7062 28.8747 26.2213C28.6496 26.7365 28.4756 27.262 28.3526 27.7981C28.2319 28.3318 28.1716 28.8562 28.1716 29.3713H26.9047C26.9047 29.0186 26.9337 28.6659 26.9917 28.3132C27.0497 27.9582 27.1309 27.6078 27.2353 27.262C27.3421 26.914 27.4697 26.574 27.6182 26.2422C27.769 25.9104 27.9349 25.5913 28.1159 25.285C28.2992 24.9764 28.4965 24.6829 28.7076 24.4044C28.9188 24.1236 29.1404 23.8637 29.3725 23.6247H26.024V22.5701H30.7717V23.4403Z" fill="#003F80"/>
<path d="M26.9841 29.9039V34.1428H26.2801V33.8099C26.2122 33.8834 26.1416 33.9463 26.068 33.9986C25.9959 34.0495 25.9217 34.0912 25.8454 34.1237C25.7691 34.1548 25.6913 34.1775 25.6121 34.1916C25.533 34.2057 25.4531 34.2128 25.3725 34.2128C25.1251 34.2128 24.9095 34.1704 24.7257 34.0856C24.5434 33.9993 24.3921 33.8827 24.272 33.7357C24.1518 33.5872 24.062 33.4141 24.0026 33.2161C23.9433 33.0182 23.9136 32.8062 23.9136 32.58C23.915 32.44 23.9291 32.3022 23.956 32.1665C23.9829 32.0308 24.0231 31.9028 24.0769 31.7827C24.1306 31.6611 24.1977 31.5494 24.2783 31.4476C24.3603 31.3458 24.4557 31.2582 24.5646 31.1847C24.6734 31.1097 24.7964 31.0518 24.9336 31.0108C25.0707 30.9684 25.2227 30.9472 25.3895 30.9472C25.4701 30.9472 25.5513 30.9557 25.6333 30.9726C25.7167 30.9882 25.7973 31.0122 25.8751 31.0447C25.9528 31.0772 26.0263 31.1189 26.0956 31.1698C26.1649 31.2207 26.2271 31.2808 26.2822 31.3501V29.9039H26.9841ZM24.6664 32.5524C24.665 32.6825 24.677 32.8111 24.7024 32.9384C24.7279 33.0642 24.771 33.1773 24.8318 33.2776C24.894 33.3766 24.9753 33.4565 25.0756 33.5173C25.1774 33.5781 25.3032 33.6084 25.4531 33.6084C25.61 33.6084 25.7422 33.5795 25.8496 33.5215C25.9585 33.4621 26.0468 33.3844 26.1147 33.2882C26.1826 33.1921 26.2313 33.0826 26.261 32.9596C26.2907 32.8366 26.3055 32.71 26.3055 32.58C26.3055 32.4994 26.2992 32.4181 26.2865 32.3361C26.2737 32.2527 26.2539 32.1728 26.2271 32.0965C26.2002 32.0202 26.1656 31.9488 26.1232 31.8823C26.0808 31.8159 26.0292 31.7586 25.9684 31.7106C25.9076 31.6611 25.8376 31.6222 25.7584 31.5939C25.6793 31.5657 25.5902 31.5515 25.4913 31.5515C25.3428 31.5515 25.2163 31.5812 25.1117 31.6406C25.0085 31.6986 24.9237 31.7749 24.8572 31.8696C24.7908 31.9643 24.742 32.0718 24.7109 32.1919C24.6812 32.3107 24.6664 32.4308 24.6664 32.5524ZM29.6199 34.1428C29.6044 34.0679 29.5903 34.0015 29.5775 33.9435C29.5662 33.8841 29.557 33.8219 29.55 33.7569C29.4765 33.8459 29.3987 33.9195 29.3167 33.9774C29.2361 34.0354 29.1527 34.082 29.0665 34.1174C28.9802 34.1527 28.8926 34.1775 28.8035 34.1916C28.7145 34.2057 28.6261 34.2128 28.5385 34.2128C28.4042 34.2128 28.2734 34.1951 28.1462 34.1598C28.0204 34.1259 27.908 34.0728 27.809 34.0007C27.71 33.9272 27.6302 33.8346 27.5694 33.723C27.5086 33.6113 27.4775 33.4791 27.4761 33.3264C27.4747 33.2147 27.4902 33.1129 27.5227 33.0211C27.5567 32.9292 27.6019 32.8465 27.6584 32.773C27.7164 32.6994 27.7843 32.6351 27.862 32.58C27.9398 32.5234 28.0239 32.4754 28.1144 32.4358C28.2048 32.3948 28.2989 32.3623 28.3964 32.3382C28.4954 32.3128 28.5943 32.2937 28.6933 32.281C28.7767 32.2711 28.8601 32.264 28.9435 32.2598C29.0283 32.2541 29.1075 32.2513 29.181 32.2513C29.2545 32.2499 29.3195 32.2506 29.3761 32.2534C29.4326 32.2548 29.475 32.257 29.5033 32.2598V32.0711C29.5033 31.9961 29.4864 31.9297 29.4524 31.8717C29.4185 31.8124 29.3733 31.7629 29.3167 31.7233C29.2616 31.6823 29.1973 31.6512 29.1237 31.63C29.0516 31.6088 28.9774 31.5982 28.9011 31.5982C28.7371 31.5982 28.6042 31.63 28.5024 31.6936C28.4006 31.7558 28.3335 31.8512 28.301 31.9799H27.5885C27.6054 31.8046 27.6535 31.6547 27.7327 31.5303C27.8118 31.4045 27.9129 31.302 28.0359 31.2228C28.1603 31.1423 28.3031 31.0836 28.4643 31.0468C28.6254 31.0087 28.7972 30.9896 28.9795 30.9896C29.0771 30.9896 29.1753 30.9967 29.2743 31.0108C29.3733 31.0249 29.468 31.0483 29.5584 31.0808C29.6503 31.1119 29.7359 31.1529 29.815 31.2038C29.8942 31.2532 29.9628 31.3147 30.0207 31.3882C30.0801 31.4618 30.126 31.548 30.1586 31.647C30.1925 31.7445 30.2102 31.8562 30.2116 31.982V33.5385C30.2116 33.6007 30.2137 33.6579 30.2179 33.7102C30.2222 33.7611 30.2292 33.8106 30.2391 33.8587C30.249 33.9053 30.2611 33.952 30.2752 33.9986C30.2907 34.0439 30.3084 34.0919 30.3282 34.1428H29.6199ZM28.6933 33.6063C28.8389 33.6063 28.9626 33.5879 29.0644 33.5512C29.1676 33.5144 29.2517 33.4678 29.3167 33.4112C29.3817 33.3547 29.4291 33.2932 29.4588 33.2268C29.4885 33.1603 29.5033 33.0981 29.5033 33.0401V32.6818C29.434 32.6775 29.3542 32.6775 29.2637 32.6818C29.1732 32.686 29.0799 32.6966 28.9838 32.7136C28.8877 32.7291 28.7929 32.7518 28.6996 32.7814C28.6063 32.8097 28.5229 32.8465 28.4494 32.8917C28.3773 32.9369 28.3186 32.9914 28.2734 33.055C28.2282 33.1172 28.2055 33.19 28.2055 33.2734C28.2055 33.3328 28.2183 33.3837 28.2437 33.4261C28.2706 33.4671 28.3059 33.501 28.3497 33.5279C28.395 33.5547 28.4473 33.5745 28.5067 33.5872C28.566 33.6 28.6282 33.6063 28.6933 33.6063ZM32.3745 34.5139C32.3137 34.668 32.2508 34.7995 32.1858 34.9083C32.1222 35.0186 32.0515 35.1084 31.9737 35.1776C31.8974 35.2483 31.8126 35.2999 31.7193 35.3324C31.626 35.365 31.5207 35.3812 31.4033 35.3812C31.3425 35.3812 31.2747 35.3784 31.1997 35.3727C31.1248 35.3685 31.0492 35.3515 30.9728 35.3218L30.9707 34.6433C31.0513 34.6744 31.122 34.6949 31.1828 34.7048C31.245 34.7161 31.298 34.7217 31.3418 34.7217C31.4874 34.7217 31.5949 34.6553 31.6641 34.5224L31.8232 34.1089L30.6187 31.0596H31.4012L32.19 33.2564L32.9386 31.0596H33.685L32.3745 34.5139Z" fill="#003F80"/>
<defs>
<clipPath id="clip0_160_1037">
<rect width="32.5714" height="32.5714" fill="white"/>
</clipPath>
</defs>
</svg>
