
<svg width="38" height="38" viewBox="0 0 38 38" fill="none" xmlns="http://www.w3.org/2000/svg">
  <g clip-path="url(#clip0_160_1029)">
    <path fill-rule="evenodd" clip-rule="evenodd" d="M24.7182 26.8815V1.32697C24.7173 0.975318 24.5772 0.638335 24.3285 0.38968C24.0799 0.141025 23.7429 0.000923565 23.3912 0L4.81737 0C4.46571 0.000890134 4.12871 0.140981 3.88005 0.389643C3.63138 0.638305 3.49129 0.975308 3.4904 1.32697V26.8815C3.49133 27.2332 3.63143 27.5702 3.88008 27.8188C4.12874 28.0675 4.46572 28.2076 4.81737 28.2085H23.3912C23.7429 28.2076 24.0798 28.0674 24.3285 27.8188C24.5771 27.5701 24.7172 27.2332 24.7182 26.8815ZM25.8039 4.36292H27.7541C28.1058 4.36387 28.4428 4.50399 28.6914 4.75263C28.94 5.00128 29.0802 5.33825 29.0811 5.68989V31.2445C29.0802 31.5961 28.94 31.9331 28.6914 32.1817C28.4428 32.4304 28.1058 32.5705 27.7541 32.5714H9.18029C8.82865 32.5705 8.49169 32.4304 8.24304 32.1817C7.99439 31.9331 7.85428 31.5961 7.85332 31.2445V29.2942H23.3912C24.0308 29.2932 24.6439 29.0387 25.0961 28.5865C25.5484 28.1342 25.8029 27.5211 25.8039 26.8815V4.36292ZM15.5478 8.19413V4.36877C16.5202 4.48981 17.4244 4.93176 18.1173 5.62464C18.8102 6.31753 19.2521 7.22175 19.3732 8.19413H15.5478ZM16.3154 13.6638C15.8198 14.1593 15.2131 14.5293 14.5457 14.7431C13.8783 14.9569 13.1695 15.0081 12.4782 14.8927C11.787 14.7773 11.1333 14.4984 10.5715 14.0794C10.0098 13.6604 9.55622 13.1133 9.24855 12.4836C8.94089 11.854 8.78804 11.1599 8.8027 10.4593C8.81736 9.75861 8.99912 9.07158 9.33286 8.45533C9.66659 7.83909 10.1427 7.31144 10.7214 6.91629C11.3002 6.52113 11.965 6.2699 12.6605 6.18348V10.5517C12.6605 10.623 12.6745 10.6936 12.7018 10.7594C12.7291 10.8253 12.7691 10.8851 12.8195 10.9355C12.8699 10.986 12.9297 11.0259 12.9956 11.0532C13.0615 11.0805 13.1321 11.0945 13.2034 11.0945H17.5715C17.4516 12.0672 17.0094 12.9717 16.3157 13.664L16.3154 13.6638ZM7.06143 18.7969H21.1469C21.2182 18.7969 21.2888 18.8109 21.3547 18.8382C21.4205 18.8655 21.4804 18.9055 21.5308 18.9559C21.5812 19.0063 21.6212 19.0661 21.6484 19.132C21.6757 19.1979 21.6898 19.2684 21.6898 19.3397C21.6898 19.411 21.6757 19.4816 21.6484 19.5475C21.6212 19.6133 21.5812 19.6732 21.5308 19.7236C21.4804 19.774 21.4205 19.814 21.3547 19.8412C21.2888 19.8685 21.2182 19.8826 21.1469 19.8826H7.06143C6.99014 19.8826 6.91955 19.8685 6.85369 19.8412C6.78783 19.814 6.72799 19.774 6.67758 19.7236C6.62718 19.6732 6.58719 19.6133 6.55991 19.5475C6.53263 19.4816 6.51859 19.411 6.51859 19.3397C6.51859 19.2684 6.53263 19.1979 6.55991 19.132C6.58719 19.0661 6.62718 19.0063 6.67758 18.9559C6.72799 18.9055 6.78783 18.8655 6.85369 18.8382C6.91955 18.8109 6.99014 18.7969 7.06143 18.7969ZM7.06143 21.1341H21.1469C21.2187 21.1334 21.2899 21.1468 21.3565 21.1738C21.423 21.2007 21.4836 21.2406 21.5346 21.2911C21.5856 21.3415 21.6262 21.4017 21.6538 21.4679C21.6815 21.5342 21.6957 21.6052 21.6957 21.677C21.6957 21.7488 21.6815 21.8199 21.6538 21.8861C21.6262 21.9524 21.5856 22.0125 21.5346 22.063C21.4836 22.1135 21.423 22.1533 21.3565 22.1803C21.2899 22.2072 21.2187 22.2207 21.1469 22.2199H7.06143C6.91847 22.2183 6.78189 22.1605 6.68134 22.0588C6.5808 21.9572 6.5244 21.82 6.5244 21.677C6.5244 21.534 6.5808 21.3969 6.68134 21.2952C6.78189 21.1936 6.91847 21.1357 7.06143 21.1341ZM7.06143 23.4715H21.1469C21.2187 23.4707 21.2899 23.4842 21.3565 23.5111C21.423 23.538 21.4836 23.5779 21.5346 23.6284C21.5856 23.6789 21.6262 23.739 21.6538 23.8052C21.6815 23.8715 21.6957 23.9425 21.6957 24.0143C21.6957 24.0861 21.6815 24.1572 21.6538 24.2235C21.6262 24.2897 21.5856 24.3498 21.5346 24.4003C21.4836 24.4508 21.423 24.4906 21.3565 24.5176C21.2899 24.5445 21.2187 24.558 21.1469 24.5572H7.06143C6.91847 24.5557 6.78189 24.4978 6.68134 24.3961C6.5808 24.2945 6.5244 24.1573 6.5244 24.0143C6.5244 23.8714 6.5808 23.7342 6.68134 23.6325C6.78189 23.5309 6.91847 23.473 7.06143 23.4715ZM18.6904 10.5515C18.6904 11.6367 18.3686 12.6976 17.7657 13.5999C17.1627 14.5022 16.3058 15.2055 15.3031 15.6207C14.3005 16.036 13.1973 16.1447 12.1329 15.9329C11.0685 15.7212 10.0909 15.1986 9.32351 14.4312C8.55614 13.6639 8.03356 12.6862 7.82185 11.6218C7.61013 10.5574 7.71879 9.4542 8.13409 8.45159C8.54938 7.44897 9.25265 6.59202 10.155 5.9891C11.0573 5.38618 12.1181 5.06436 13.2034 5.06435C13.3473 5.06435 13.4854 5.12154 13.5872 5.22334C13.689 5.32514 13.7462 5.46322 13.7462 5.60718V10.0087H18.1476C18.2916 10.0087 18.4297 10.0658 18.5315 10.1676C18.6333 10.2694 18.6904 10.4075 18.6904 10.5515ZM19.9495 9.2798H15.0052C14.9339 9.27981 14.8633 9.26578 14.7975 9.2385C14.7316 9.21122 14.6718 9.17124 14.6213 9.12083C14.5709 9.07043 14.5309 9.01058 14.5037 8.94472C14.4764 8.87885 14.4623 8.80826 14.4623 8.73697V3.79266C14.4623 3.72137 14.4764 3.65078 14.5037 3.58491C14.5309 3.51905 14.5709 3.45921 14.6213 3.4088C14.6718 3.35839 14.7316 3.31841 14.7975 3.29113C14.8633 3.26385 14.9339 3.24982 15.0052 3.24983C16.4605 3.24988 17.8561 3.828 18.8852 4.85703C19.9142 5.88606 20.4923 7.2817 20.4924 8.73697C20.4924 8.88094 20.4352 9.01901 20.3334 9.12081C20.2316 9.22261 20.0935 9.2798 19.9495 9.2798Z" fill="white"/>
  </g>
<circle cx="28.2286" cy="28.2287" r="9.77143" fill="#0E3A81"/>
<path d="M23.3296 25.1354C23.3064 24.8847 23.3133 24.6446 23.3505 24.4149C23.3876 24.1851 23.4514 23.9728 23.5419 23.7779C23.6324 23.5807 23.7473 23.4031 23.8865 23.2453C24.0257 23.0852 24.1858 22.9495 24.3668 22.8381C24.5501 22.7244 24.752 22.6374 24.9725 22.5771C25.1952 22.5167 25.4342 22.4866 25.6895 22.4866C26.0051 22.4866 26.3021 22.5318 26.5805 22.6223C26.8613 22.7128 27.105 22.8462 27.3115 23.0226C27.518 23.1989 27.6804 23.4159 27.7988 23.6735C27.9194 23.9287 27.9798 24.2223 27.9798 24.5541C27.9798 24.7676 27.9554 24.9636 27.9067 25.1423C27.8603 25.321 27.7953 25.4857 27.7118 25.6366C27.6305 25.7851 27.5342 25.922 27.4229 26.0473C27.3115 26.1726 27.192 26.2875 27.0644 26.3919C26.9367 26.4963 26.8045 26.5938 26.6676 26.6843C26.5307 26.7724 26.3961 26.856 26.2638 26.9349C26.0805 27.0462 25.896 27.1599 25.7104 27.276C25.5271 27.3897 25.3565 27.5069 25.1987 27.6275C25.0409 27.7459 24.904 27.8665 24.788 27.9895C24.672 28.1102 24.5896 28.2332 24.5409 28.3585H27.9345L27.938 29.3713H23.1347C23.1602 29.0882 23.2054 28.8318 23.2704 28.6021C23.3377 28.3724 23.4189 28.1635 23.5141 27.9756C23.6115 27.7876 23.7217 27.6182 23.8447 27.4674C23.97 27.3143 24.1023 27.175 24.2415 27.0497C24.3808 26.9221 24.5258 26.8049 24.6766 26.6982C24.8298 26.5914 24.9829 26.4893 25.1361 26.3919C25.4215 26.2062 25.6663 26.0426 25.8705 25.9011C26.077 25.7572 26.2476 25.618 26.3821 25.4834C26.5167 25.3465 26.6165 25.2038 26.6815 25.0553C26.7465 24.9068 26.7789 24.7339 26.7789 24.5367C26.7766 24.3766 26.7453 24.2327 26.685 24.1051C26.6269 23.9751 26.5469 23.8661 26.4448 23.7779C26.3427 23.6874 26.2232 23.6178 26.0863 23.569C25.9494 23.5203 25.8032 23.496 25.6477 23.496C25.4366 23.496 25.2544 23.5435 25.1013 23.6387C24.9481 23.7315 24.8228 23.8545 24.7253 24.0076C24.6279 24.1608 24.5571 24.336 24.513 24.5332C24.4712 24.7281 24.4573 24.9288 24.4712 25.1354H23.3296ZM31.4918 24.3766L29.734 26.8896H31.4918V24.3766ZM33.5489 26.8896V27.9443H32.6195V29.3713H31.4953V27.9443H28.488L28.4914 26.9488L31.6066 22.5701H32.6195V26.8896H33.5489Z" fill="white"/>
<path d="M26.4204 29.9039L26.4183 31.3967C26.4904 31.3105 26.5667 31.2405 26.6473 31.1868C26.7279 31.1317 26.8071 31.0893 26.8848 31.0596C26.964 31.0285 27.0389 31.008 27.1096 30.9981C27.1817 30.9868 27.246 30.9811 27.3026 30.9811C27.5259 30.9811 27.7097 31.0108 27.8539 31.0702C27.9981 31.1281 28.1119 31.2087 28.1953 31.3119C28.2787 31.4151 28.336 31.5374 28.3671 31.6788C28.3996 31.8187 28.4159 31.9714 28.4159 32.1368V34.1428H27.7055V32.0923C27.7055 31.9396 27.6631 31.8208 27.5782 31.736C27.4934 31.6498 27.3676 31.6067 27.2008 31.6067C27.0707 31.6067 26.9562 31.6279 26.8573 31.6703C26.7597 31.7127 26.6784 31.7706 26.6134 31.8442C26.5484 31.9163 26.4996 32.0011 26.4671 32.0986C26.4346 32.1948 26.4183 32.2972 26.4183 32.4061V34.1428H25.7101V29.9039H26.4204ZM29.7582 31.0596V31.4922C29.8189 31.4045 29.8819 31.3289 29.9469 31.2653C30.0133 31.2016 30.0868 31.15 30.1674 31.1105C30.248 31.0695 30.3385 31.0405 30.4388 31.0235C30.5392 31.0051 30.6551 30.9967 30.7866 30.9981V31.6936C30.583 31.6936 30.4162 31.7183 30.2862 31.7678C30.1561 31.8159 30.0536 31.8859 29.9787 31.9778C29.9052 32.0696 29.8543 32.1827 29.826 32.317C29.7992 32.4499 29.7857 32.6012 29.7857 32.7708V34.1428H29.0775V31.0596H29.7582ZM32.1119 33.3179L32.1098 34.1513H31.2765L31.2786 33.3179H32.1119Z" fill="white"/>
<defs>
<clipPath id="clip0_160_1029">
<rect width="32.5714" height="32.5714" fill="white"/>
</clipPath>
</defs>
</svg>
