<svg width="34" height="34" viewBox="0 0 34 34" fill="none" xmlns="http://www.w3.org/2000/svg">
  <g clip-path="url(#clip0_433_1998)">
    <path d="M24.228 25.0061C24.228 29.9733 20.2012 34.0002 15.2333 34.0002C15.1736 34.0002 14.9544 33.9962 14.9046 33.9942C14.8435 33.9922 14.7818 33.9895 14.7207 33.9855C14.6755 33.9836 14.631 33.9802 14.5859 33.9776C14.5825 33.9769 14.5786 33.9769 14.5739 33.9762C14.5361 33.9736 14.4975 33.9703 14.459 33.967C14.3893 33.9616 14.3196 33.9543 14.2498 33.947C14.2107 33.943 14.1715 33.9384 14.1323 33.9331C14.1111 33.9311 14.0898 33.9284 14.0686 33.9251C14.0247 33.9198 13.8541 33.8952 13.8129 33.8886C13.7418 33.8773 13.6708 33.8654 13.5997 33.8521C13.5552 33.8441 13.5101 33.8355 13.4656 33.8262C13.4251 33.8182 13.3846 33.8102 13.3447 33.8016C13.2949 33.791 13.0326 33.7286 13.0021 33.7212C12.9516 33.708 12.9005 33.6947 12.85 33.6807C12.7517 33.6542 12.6548 33.6256 12.5585 33.5957C12.5552 33.5944 12.5518 33.5931 12.5485 33.5924C12.4987 33.5765 12.247 33.4921 12.2444 33.4915C12.1979 33.4749 12.0073 33.4038 11.9588 33.3852C11.917 33.3686 11.7251 33.2896 11.6799 33.271C11.5298 33.2059 11.3818 33.1375 11.2363 33.0652C11.1945 33.0446 11.0212 32.9543 10.976 32.9304C10.9302 32.9058 10.7516 32.8048 10.7071 32.7796C8.03488 31.2204 6.23926 28.3231 6.23926 25.0061C6.23926 22.2177 7.7075 19.0136 9.47457 16.3115L15.2337 14.9834L20.8925 16.3115C22.7007 19.0136 24.228 22.2177 24.228 25.0061Z" fill="white"/>
    <path d="M24.2283 25.0061C24.2283 29.9733 20.2014 34.0002 15.2336 34.0002C15.1738 34.0002 14.9546 33.9962 14.9048 33.9942C14.8438 33.9922 14.782 33.9895 14.7209 33.9855C14.6757 33.9836 14.6312 33.9802 14.5861 33.9776C14.5828 33.9769 14.5788 33.9769 14.5741 33.9762C14.5363 33.9736 14.4978 33.9703 14.4593 33.967C14.3895 33.9616 14.3198 33.9543 14.2501 33.947C14.2109 33.943 14.1717 33.9384 14.1325 33.9331C14.1113 33.9311 14.09 33.9284 14.0688 33.9251C14.025 33.9198 13.8543 33.8952 13.8131 33.8886C13.7421 33.8773 13.671 33.8654 13.6 33.8521C13.5555 33.8441 13.5103 33.8355 13.4658 33.8262C13.4253 33.8182 13.3848 33.8102 13.345 33.8016C13.2952 33.791 13.0329 33.7286 13.0023 33.7212C12.9518 33.708 12.9007 33.6947 12.8502 33.6807C12.752 33.6542 12.655 33.6256 12.5587 33.5957C12.5554 33.5944 12.5521 33.5931 12.5488 33.5924C12.4989 33.5765 12.2473 33.4921 12.2446 33.4915C12.1981 33.4749 12.0075 33.4038 11.9591 33.3852C11.9172 33.3686 11.7253 33.2896 11.6802 33.271C11.5301 33.2059 11.382 33.1375 11.2366 33.0652C11.1947 33.0446 11.0214 32.9543 10.9762 32.9304C10.9304 32.9058 10.7518 32.8048 10.7073 32.7796C10.6183 32.7278 10.5307 32.674 10.4443 32.6196C11.3561 32.9642 12.3409 33.1521 13.3682 33.1521C18.0625 33.1521 21.8682 29.2262 21.8682 24.3832C21.8682 21.8027 20.5673 18.8569 18.9736 16.3115H20.8927C22.7009 19.0136 24.2283 22.2177 24.2283 25.0061Z" fill="white"/>
    <path d="M20.8925 16.3119C18.6263 12.9246 15.9205 10.3262 15.2339 10.3262C14.3785 10.3262 11.6918 12.9246 9.47559 16.3119H20.8925Z" fill="white"/>
    <path d="M17.2846 11.8595C16.9268 11.5017 16.4949 11.0971 16.0926 10.7873C15.905 10.643 15.4712 10.3257 15.2341 10.3257C14.9815 10.3257 14.6068 10.56 14.3994 10.7038C15.5725 11.7094 17.4133 13.8186 18.9739 16.3114H20.8927C19.6913 14.5159 18.3666 12.9422 17.2846 11.8595Z" fill="white"/>
    <path d="M6.50583 13.418C6.50583 15.1836 5.07458 16.6148 3.3091 16.6148C1.54362 16.6148 0.112305 15.1836 0.112305 13.418C0.112305 11.1845 2.76251 8.40967 3.30904 8.40967C3.74771 8.40967 6.50577 11.1845 6.50583 13.418Z" fill="white"/>
    <path d="M3.30864 8.40967C3.21235 8.40967 3.05052 8.49613 2.84964 8.65032C3.80974 9.61175 5.14384 11.4268 5.14384 12.9803C5.14384 14.7458 3.71259 16.177 1.94711 16.177C1.85461 16.177 1.7633 16.1722 1.67285 16.1645C2.15151 16.4503 2.71078 16.6148 3.3087 16.6148C5.07425 16.6148 6.5055 15.1836 6.50543 13.4181C6.50537 11.1845 3.74732 8.40967 3.30864 8.40967Z" fill="white"/>
    <path d="M18.0039 29.8609C16.9539 29.8609 16.0996 29.0066 16.0996 27.9566C16.0996 26.9066 16.9539 26.0522 18.0039 26.0522C19.054 26.0522 19.9083 26.9065 19.9083 27.9566C19.9083 29.0067 19.054 29.8609 18.0039 29.8609ZM18.0039 27.0631C17.5113 27.0631 17.1104 27.4639 17.1104 27.9566C17.1104 28.4492 17.5113 28.85 18.0039 28.85C18.4965 28.85 18.8974 28.4492 18.8974 27.9566C18.8974 27.464 18.4965 27.0631 18.0039 27.0631Z" fill="#008FD3"/>
    <path d="M12.4629 23.9586C11.4128 23.9586 10.5586 23.1043 10.5586 22.0542C10.5586 21.0042 11.4129 20.1499 12.4629 20.1499C13.5129 20.1499 14.3673 21.0042 14.3673 22.0542C14.3673 23.1043 13.513 23.9586 12.4629 23.9586ZM12.4629 21.1608C11.9703 21.1608 11.5695 21.5616 11.5695 22.0542C11.5695 22.5468 11.9703 22.9477 12.4629 22.9477C12.9555 22.9477 13.3564 22.5469 13.3564 22.0542C13.3564 21.5616 12.9556 21.1608 12.4629 21.1608Z" fill="#008FD3"/>
    <path d="M11.9684 28.7759C11.839 28.7759 11.7096 28.7266 11.611 28.6279C11.4135 28.4306 11.4135 28.1105 11.611 27.9131L18.1406 21.3834C18.338 21.186 18.658 21.186 18.8555 21.3834C19.0528 21.5808 19.0528 21.9008 18.8555 22.0982L12.3258 28.6279C12.227 28.7265 12.0977 28.7759 11.9684 28.7759Z" fill="#008FD3"/>
    <path d="M29.9001 23.2671C32.4309 20.7339 33.8876 17.2844 33.8876 13.6331C33.8876 9.90429 32.3823 6.52076 29.948 4.05696C29.9321 4.03464 29.9146 4.01306 29.8945 3.99307C29.8746 3.97309 29.853 3.95562 29.8307 3.93968C27.3669 1.50536 23.9833 0 20.2544 0C16.6033 0 13.1537 1.45669 10.6205 3.9875C10.6185 3.98942 10.6163 3.99102 10.6144 3.99301C10.613 3.9944 10.6118 3.99593 10.6104 3.99739C10.0005 4.608 9.44321 5.28023 8.94994 6.01036C8.79369 6.24172 8.85452 6.55589 9.08581 6.71214C9.31717 6.8684 9.63134 6.80757 9.78759 6.57628C10.1493 6.04084 10.5481 5.53895 10.9788 5.07224L12.6278 6.72124C12.7265 6.81992 12.8558 6.86926 12.9852 6.86926C13.1145 6.86926 13.2439 6.81992 13.3426 6.72124C13.54 6.52388 13.54 6.2038 13.3426 6.00644L11.6942 4.35811C13.8799 2.34022 16.7255 1.14272 19.749 1.02219V3.35285C19.749 3.63202 19.9752 3.85834 20.2544 3.85834C20.5336 3.85834 20.7599 3.63202 20.7599 3.35285V1.02193C23.8595 1.14464 26.675 2.39009 28.8105 4.36229L27.1662 6.00651C26.9689 6.20387 26.9689 6.52395 27.1662 6.72131C27.265 6.81999 27.3943 6.86933 27.5237 6.86933C27.6531 6.86933 27.7824 6.81999 27.8812 6.72131L29.5253 5.07716C31.4976 7.21258 32.743 10.0281 32.8657 13.1277H30.5347C30.2555 13.1277 30.0292 13.354 30.0292 13.6331C30.0292 13.9123 30.2555 14.1386 30.5347 14.1386H32.8654C32.7448 17.1621 31.5473 20.0076 29.5295 22.1933L27.8811 20.545C27.6837 20.3476 27.3637 20.3476 27.1662 20.545C26.9689 20.7423 26.9689 21.0624 27.1662 21.2598L28.8153 22.9088C28.3487 23.3395 27.8468 23.7383 27.3114 24.1C27.08 24.2563 27.0193 24.5705 27.1755 24.8018C27.2732 24.9464 27.4325 25.0243 27.5948 25.0243C27.6921 25.0243 27.7905 24.9962 27.8773 24.9377C28.6074 24.4444 29.2796 23.8871 29.8902 23.2772C29.8916 23.2758 29.8931 23.2747 29.8946 23.2733C29.8965 23.2712 29.8981 23.2691 29.9001 23.2671Z" fill="white"/>
  </g>
  <defs>
    <clipPath id="clip0_433_1998">
      <rect width="34" height="34" fill="white"/>
    </clipPath>
  </defs>
</svg>
